<svg xmlns="http://www.w3.org/2000/svg" viewBox="0 0 100 100" fill="none">
  <!-- CafePilots favicon: cup + propeller -->
  <rect width="100" height="100" rx="18" fill="#0D1B2A"/>
  <path d="M47 22 C 25 12, 10 20, 15 27 C 25 30, 47 26, 47 22 Z" fill="#FF6A00"/>
  <path d="M53 22 C 75 12, 90 20, 85 27 C 75 30, 53 26, 53 22 Z" fill="#FF6A00"/>
  <rect x="46.5" y="12" width="7" height="28" rx="3.5" fill="#FF6A00"/>
  <circle cx="50" cy="22" r="5" fill="#FF6A00"/>
  <path d="M75 45 C 95 45, 95 65, 75 65" stroke="#FFFFFF" stroke-width="6" stroke-linecap="round" fill="none"/>
  <path d="M20 40 L80 40 C 80 68, 65 75, 50 75 C 35 75, 20 68, 20 40 Z" fill="#FFFFFF"/>
  <ellipse cx="50" cy="40" rx="30" ry="4" fill="#e2e8f0"/>
  <path d="M30 85 Q 50 92 70 85" stroke="#FFFFFF" stroke-width="4" stroke-linecap="round" fill="none"/>
</svg>
